<?xml version="1.0" encoding="UTF-8" standalone="no"?>
<!-- Created with Inkscape (http://www.inkscape.org/) -->

<svg
   xmlns:dc="http://purl.org/dc/elements/1.1/"
   xmlns:cc="http://creativecommons.org/ns#"
   xmlns:rdf="http://www.w3.org/1999/02/22-rdf-syntax-ns#"
   xmlns:svg="http://www.w3.org/2000/svg"
   xmlns="http://www.w3.org/2000/svg"
   xmlns:xlink="http://www.w3.org/1999/xlink"
   xmlns:sodipodi="http://sodipodi.sourceforge.net/DTD/sodipodi-0.dtd"
   xmlns:inkscape="http://www.inkscape.org/namespaces/inkscape"
   version="1.0"
   width="96"
   height="96"
   id="svg2408"
   style="display:inline"
   inkscape:version="0.48.4 r9939"
   sodipodi:docname="systray.svg">
  <sodipodi:namedview
     pagecolor="#ffffff"
     bordercolor="#666666"
     borderopacity="1"
     objecttolerance="10"
     gridtolerance="10"
     guidetolerance="10"
     inkscape:pageopacity="0"
     inkscape:pageshadow="2"
     inkscape:window-width="1920"
     inkscape:window-height="1150"
     id="namedview214"
     showgrid="false"
     inkscape:zoom="4.9166667"
     inkscape:cx="20.425874"
     inkscape:cy="20.235274"
     inkscape:window-x="0"
     inkscape:window-y="0"
     inkscape:window-maximized="1"
     inkscape:current-layer="svg2408" />
  <defs
     id="defs2410">
    <linearGradient
       id="linearGradient3778">
      <stop
         id="stop3780"
         style="stop-color:#195091;stop-opacity:1;"
         offset="0" />
      <stop
         id="stop3782"
         style="stop-color:#25b6d6;stop-opacity:1;"
         offset="1" />
    </linearGradient>
    <linearGradient
       id="linearGradient4426">
      <stop
         id="stop4428"
         style="stop-color:#71461e;stop-opacity:1"
         offset="0" />
      <stop
         id="stop4430"
         style="stop-color:#71461e;stop-opacity:0"
         offset="1" />
    </linearGradient>
    <linearGradient
       id="linearGradient4414">
      <stop
         id="stop4416"
         style="stop-color:#dac3a2;stop-opacity:1"
         offset="0" />
      <stop
         id="stop4418"
         style="stop-color:#dac3a2;stop-opacity:0"
         offset="1" />
    </linearGradient>
    <linearGradient
       id="linearGradient4370">
      <stop
         id="stop4372"
         style="stop-color:#8a5b30;stop-opacity:1"
         offset="0" />
      <stop
         id="stop4374"
         style="stop-color:#8a5b30;stop-opacity:0"
         offset="1" />
    </linearGradient>
    <linearGradient
       id="linearGradient4295">
      <stop
         id="stop4297"
         style="stop-color:#b88f56;stop-opacity:1"
         offset="0" />
      <stop
         id="stop4299"
         style="stop-color:#d9bd98;stop-opacity:1"
         offset="1" />
    </linearGradient>
    <linearGradient
       id="linearGradient4289">
      <stop
         id="stop4291"
         style="stop-color:#996c3b;stop-opacity:1"
         offset="0" />
      <stop
         id="stop4293"
         style="stop-color:#c19e6d;stop-opacity:1"
         offset="1" />
    </linearGradient>
    <linearGradient
       id="linearGradient5092">
      <stop
         id="stop5094"
         style="stop-color:#be9f6a;stop-opacity:1"
         offset="0" />
      <stop
         id="stop5096"
         style="stop-color:#e5d2b2;stop-opacity:1"
         offset="1" />
    </linearGradient>
    <linearGradient
       id="linearGradient5010">
      <stop
         id="stop5012"
         style="stop-color:#000000;stop-opacity:1"
         offset="0" />
      <stop
         id="stop5014"
         style="stop-color:#000000;stop-opacity:0"
         offset="1" />
    </linearGradient>
    <linearGradient
       x1="45.447727"
       y1="92.539597"
       x2="45.447727"
       y2="7.0165396"
       id="ButtonShadow"
       gradientUnits="userSpaceOnUse"
       gradientTransform="scale(1.0058652,0.994169)">
      <stop
         id="stop3750"
         style="stop-color:#000000;stop-opacity:1"
         offset="0" />
      <stop
         id="stop3752"
         style="stop-color:#000000;stop-opacity:0.58823532"
         offset="1" />
    </linearGradient>
    <linearGradient
       id="linearGradient3737">
      <stop
         id="stop3739"
         style="stop-color:#ffffff;stop-opacity:1"
         offset="0" />
      <stop
         id="stop3741"
         style="stop-color:#ffffff;stop-opacity:0"
         offset="1" />
    </linearGradient>
    <linearGradient
       x1="54.187183"
       y1="90"
       x2="54.187183"
       y2="39.852562"
       id="linearGradient3706"
       xlink:href="#linearGradient4289"
       gradientUnits="userSpaceOnUse" />
    <filter
       color-interpolation-filters="sRGB"
       id="filter3174">
      <feGaussianBlur
         id="feGaussianBlur3176"
         stdDeviation="1.71" />
    </filter>
    <filter
       x="-0.31155673"
       y="-0.42628157"
       width="1.6231135"
       height="1.8525631"
       color-interpolation-filters="sRGB"
       id="filter4362">
      <feGaussianBlur
         id="feGaussianBlur4364"
         stdDeviation="6.2124381" />
    </filter>
    <linearGradient
       x1="47.079498"
       y1="32.782871"
       x2="6.5962563"
       y2="9.4098616"
       id="linearGradient5100"
       xlink:href="#linearGradient5092"
       gradientUnits="userSpaceOnUse" />
    <linearGradient
       x1="48"
       y1="42"
       x2="6.7812738"
       y2="18.202358"
       id="linearGradient2489"
       xlink:href="#linearGradient4295"
       gradientUnits="userSpaceOnUse" />
    <linearGradient
       x1="47.226776"
       y1="29.039698"
       x2="6.3304405"
       y2="18.081558"
       id="linearGradient3264"
       xlink:href="#linearGradient4295"
       gradientUnits="userSpaceOnUse"
       gradientTransform="matrix(-1,0,0,1,96,0)" />
    <linearGradient
       x1="23.142857"
       y1="42"
       x2="66.964287"
       y2="6"
       id="linearGradient3285"
       xlink:href="#linearGradient3737"
       gradientUnits="userSpaceOnUse" />
    <linearGradient
       x1="8"
       y1="38.127232"
       x2="8"
       y2="71.877235"
       id="linearGradient4376"
       xlink:href="#linearGradient4370"
       gradientUnits="userSpaceOnUse" />
    <linearGradient
       x1="10"
       y1="40.263424"
       x2="10"
       y2="89.666374"
       id="linearGradient4394"
       xlink:href="#linearGradient3737"
       gradientUnits="userSpaceOnUse" />
    <linearGradient
       x1="8"
       y1="38.127232"
       x2="8"
       y2="87.029526"
       id="linearGradient4400"
       xlink:href="#linearGradient4370"
       gradientUnits="userSpaceOnUse"
       gradientTransform="matrix(-1,0,0,1,96,0)" />
    <linearGradient
       x1="10"
       y1="40.263424"
       x2="10"
       y2="89.666374"
       id="linearGradient4402"
       xlink:href="#linearGradient3737"
       gradientUnits="userSpaceOnUse"
       gradientTransform="matrix(-1,0,0,1,96,0)" />
    <linearGradient
       x1="8.9651041"
       y1="44.040279"
       x2="8.9651041"
       y2="52.263294"
       id="linearGradient4420"
       xlink:href="#linearGradient4414"
       gradientUnits="userSpaceOnUse" />
    <linearGradient
       x1="8.9651041"
       y1="44.040279"
       x2="8.9651041"
       y2="52.263294"
       id="linearGradient4424"
       xlink:href="#linearGradient4414"
       gradientUnits="userSpaceOnUse"
       gradientTransform="matrix(-1,0,0,1,96.086934,0)" />
    <radialGradient
       cx="48"
       cy="73.14563"
       r="42"
       fx="48"
       fy="73.14563"
       id="radialGradient4432"
       xlink:href="#linearGradient4426"
       gradientUnits="userSpaceOnUse"
       gradientTransform="matrix(0.867765,0,0,0.09523809,6.3472804,36.190476)" />
    <linearGradient
       x1="65.262688"
       y1="64.205269"
       x2="65.262688"
       y2="50.068527"
       id="linearGradient3832"
       xlink:href="#linearGradient3737"
       gradientUnits="userSpaceOnUse"
       gradientTransform="matrix(0.625,0,0,0.625,28.5,31.25)" />
    <linearGradient
       id="linearGradient3737-4">
      <stop
         id="stop3739-1"
         style="stop-color:#ffffff;stop-opacity:1"
         offset="0" />
      <stop
         id="stop3741-8"
         style="stop-color:#ffffff;stop-opacity:0"
         offset="1" />
    </linearGradient>
    <radialGradient
       cx="48"
       cy="90.171875"
       r="42"
       fx="48"
       fy="90.171875"
       id="radialGradient2858"
       xlink:href="#linearGradient3737-4"
       gradientUnits="userSpaceOnUse"
       gradientTransform="matrix(1.1573129,0,0,0.99590774,-7.551021,0.1971319)" />
    <linearGradient
       x1="56"
       y1="72"
       x2="88"
       y2="72"
       id="linearGradient3773"
       xlink:href="#linearGradient3778"
       gradientUnits="userSpaceOnUse"
       gradientTransform="matrix(0.9375,0,0,0.9375,-140.5,3.5)" />
    <linearGradient
       x1="70"
       y1="54"
       x2="70"
       y2="75.095024"
       id="linearGradient3788"
       xlink:href="#linearGradient3737"
       gradientUnits="userSpaceOnUse"
       gradientTransform="translate(0,4)" />
    <filter
       color-interpolation-filters="sRGB"
       id="filter3806">
      <feGaussianBlur
         id="feGaussianBlur3808"
         stdDeviation="1.2" />
    </filter>
    <linearGradient
       x1="65.262688"
       y1="64.205269"
       x2="65.262688"
       y2="50.068527"
       id="linearGradient3812"
       xlink:href="#linearGradient5010"
       gradientUnits="userSpaceOnUse"
       gradientTransform="matrix(0.625,0,0,0.625,78.5,32.25)" />
    <clipPath
       id="clipPath3823">
      <path
         d="M 108.8125,58 C 107.25437,58 106,59.254375 106,60.8125 l 0,24.375 C 106,86.745625 107.25437,88 108.8125,88 l 24.375,0 C 134.74562,88 136,86.745625 136,85.1875 l 0,-24.375 C 136,59.254375 134.74562,58 133.1875,58 l -24.375,0 z m 7.1875,4.5 10,0 0,8.75 5,0 -10,13.75 -10,-13.75 5,0 0,-8.75 z"
         inkscape:connector-curvature="0"
         id="path3825"
         style="fill:#ffffff;fill-opacity:1;stroke:none" />
    </clipPath>
    <filter
       color-interpolation-filters="sRGB"
       id="filter3831">
      <feGaussianBlur
         id="feGaussianBlur3833"
         stdDeviation="0.6375" />
    </filter>
    <linearGradient
       x1="51.42857"
       y1="72.785713"
       x2="90.714287"
       y2="72.785713"
       id="linearGradient3844"
       xlink:href="#linearGradient3778"
       gradientUnits="userSpaceOnUse"
       gradientTransform="matrix(0,-0.91636366,0.91636366,0,5.4019427,140.57217)" />
    <linearGradient
       x1="65.262688"
       y1="64.205269"
       x2="65.262688"
       y2="43.780487"
       id="linearGradient3871"
       xlink:href="#linearGradient3737"
       gradientUnits="userSpaceOnUse"
       gradientTransform="matrix(-0.62498884,0.0037337,-0.0037337,-0.62498884,114.95119,116.46185)" />
    <clipPath
       id="clipPath3894">
      <path
         d="m 128,56 c -9.94113,0 -18,8.058875 -18,18 0,9.941125 8.05887,18 18,18 9.94113,0 18,-8.058875 18,-18 0,-9.941125 -8.05887,-18 -18,-18 z m -6,4.5 12,0 0,13.75 5,0 -11,13.75 -11,-13.75 5,0 0,-13.75 z"
         inkscape:connector-curvature="0"
         id="path3896"
         style="fill:#ffffff;fill-opacity:1;stroke:none" />
    </clipPath>
    <linearGradient
       x1="123.07514"
       y1="75.788338"
       x2="123.07514"
       y2="59.878803"
       id="linearGradient3908"
       xlink:href="#linearGradient5010"
       gradientUnits="userSpaceOnUse" />
    <linearGradient
       x1="64.321426"
       y1="55.310268"
       x2="64.321426"
       y2="84.889679"
       id="linearGradient3857-6"
       xlink:href="#linearGradient3737-1"
       gradientUnits="userSpaceOnUse"
       gradientTransform="translate(-2,0)" />
    <linearGradient
       id="linearGradient3737-1">
      <stop
         id="stop3739-5"
         style="stop-color:#ffffff;stop-opacity:1"
         offset="0" />
      <stop
         id="stop3741-9"
         style="stop-color:#ffffff;stop-opacity:0"
         offset="1" />
    </linearGradient>
    <clipPath
       id="clipPath3871-0">
      <path
         d="M 0,95.999997 0,156 l 96.000001,0 0,-60.000003 -96.000001,0 z M 68,116 c 9.941125,0 18,8.05888 18,18 0,9.94112 -8.058875,18 -18,18 -9.941125,0 -18,-8.05888 -18,-18 0,-9.94112 8.058875,-18 18,-18 z"
         inkscape:connector-curvature="0"
         id="path3873-2"
         style="fill:#ffffff;fill-opacity:1;stroke:none" />
    </clipPath>
    <linearGradient
       x1="123.07514"
       y1="75.788338"
       x2="123.07514"
       y2="59.878803"
       id="linearGradient3878"
       xlink:href="#linearGradient5010"
       gradientUnits="userSpaceOnUse"
       gradientTransform="matrix(-0.99995895,0.00905994,-0.00905994,-0.99995895,200.41274,149.49273)" />
    <linearGradient
       x1="123.07514"
       y1="75.788338"
       x2="123.07514"
       y2="59.878803"
       id="linearGradient3886"
       xlink:href="#linearGradient5010"
       gradientUnits="userSpaceOnUse"
       gradientTransform="matrix(-0.99970462,0.02430362,-0.02430362,-0.99970462,203.40067,148.9174)" />
    <linearGradient
       x1="50.499405"
       y1="19.881863"
       x2="50.499405"
       y2="47.295406"
       id="linearGradient3277-5"
       xlink:href="#linearGradient4309-1"
       gradientUnits="userSpaceOnUse"
       gradientTransform="matrix(1.0200612,0,0,1.0200612,-5.2981966,5.7562054)" />
    <linearGradient
       x1="52.25"
       y1="47.247101"
       x2="52.25"
       y2="0.2393"
       id="linearGradient4309-1"
       gradientUnits="userSpaceOnUse">
      <stop
         id="stop4311-3"
         style="stop-color:#d8cab2;stop-opacity:1"
         offset="0" />
      <stop
         id="stop4321-4"
         style="stop-color:#d2b98c;stop-opacity:1"
         offset="0.45710954" />
      <stop
         id="stop4323-7"
         style="stop-color:#f9f7ef;stop-opacity:1"
         offset="0.48590001" />
      <stop
         id="stop4325-1"
         style="stop-color:#ffffff;stop-opacity:1"
         offset="0.49110001" />
      <stop
         id="stop4327-9"
         style="stop-color:#fbf9f4;stop-opacity:1"
         offset="0.49180001" />
      <stop
         id="stop4329-7"
         style="stop-color:#efe7d0;stop-opacity:1"
         offset="0.4946" />
      <stop
         id="stop4331-9"
         style="stop-color:#e4d6b0;stop-opacity:1"
         offset="0.49770001" />
      <stop
         id="stop4333-5"
         style="stop-color:#dac894;stop-opacity:1"
         offset="0.5011" />
      <stop
         id="stop4335-2"
         style="stop-color:#c7a572;stop-opacity:1"
         offset="0.50489998" />
      <stop
         id="stop4347-5"
         style="stop-color:#d7c198;stop-opacity:1"
         offset="1" />
    </linearGradient>
    <linearGradient
       x1="46.795631"
       y1="60.307007"
       x2="46.795631"
       y2="6.0179305"
       id="linearGradient3942"
       xlink:href="#linearGradient3928"
       gradientUnits="userSpaceOnUse" />
    <linearGradient
       id="linearGradient3928">
      <stop
         id="stop3930"
         style="stop-color:#3a240f;stop-opacity:1"
         offset="0" />
      <stop
         id="stop3932"
         style="stop-color:#3a240f;stop-opacity:0"
         offset="1" />
    </linearGradient>
    <linearGradient
       x1="48.40115"
       y1="61.990967"
       x2="48.40115"
       y2="4.6666145"
       id="linearGradient3934"
       xlink:href="#linearGradient3928"
       gradientUnits="userSpaceOnUse" />
    <linearGradient
       x1="45.447727"
       y1="92.539597"
       x2="45.447727"
       y2="7.0165396"
       id="ButtonShadow-0"
       gradientUnits="userSpaceOnUse"
       gradientTransform="matrix(1.0058652,0,0,0.994169,100,0)">
      <stop
         id="stop3750-8"
         style="stop-color:#000000;stop-opacity:1"
         offset="0" />
      <stop
         id="stop3752-5"
         style="stop-color:#000000;stop-opacity:0.58823532"
         offset="1" />
    </linearGradient>
    <linearGradient
       x1="32.251034"
       y1="6.1317081"
       x2="32.251034"
       y2="90.238609"
       id="linearGradient3780"
       xlink:href="#ButtonShadow-0"
       gradientUnits="userSpaceOnUse"
       gradientTransform="matrix(1.0238095,0,0,1.0119048,-1.1428571,-98.071429)" />
    <linearGradient
       x1="32.251034"
       y1="6.1317081"
       x2="32.251034"
       y2="90.238609"
       id="linearGradient3772"
       xlink:href="#ButtonShadow-0"
       gradientUnits="userSpaceOnUse"
       gradientTransform="matrix(1.0238095,0,0,1.0119048,-1.1428571,-98.071429)" />
    <linearGradient
       x1="32.251034"
       y1="6.1317081"
       x2="32.251034"
       y2="90.238609"
       id="linearGradient3725"
       xlink:href="#ButtonShadow-0"
       gradientUnits="userSpaceOnUse"
       gradientTransform="matrix(1.0238095,0,0,1.0119048,-1.1428571,-98.071429)" />
    <linearGradient
       x1="32.251034"
       y1="6.1317081"
       x2="32.251034"
       y2="90.238609"
       id="linearGradient3721"
       xlink:href="#ButtonShadow-0"
       gradientUnits="userSpaceOnUse"
       gradientTransform="translate(0,-97)" />
    <linearGradient
       x1="32.251034"
       y1="6.1317081"
       x2="32.251034"
       y2="90.238609"
       id="linearGradient2969"
       xlink:href="#ButtonShadow-0"
       gradientUnits="userSpaceOnUse"
       gradientTransform="matrix(1.0238095,0,0,1.0119048,-1.1428571,-98.071429)" />
    <linearGradient
       inkscape:collect="always"
       xlink:href="#linearGradient3778"
       id="linearGradient3204"
       gradientUnits="userSpaceOnUse"
       gradientTransform="matrix(0,-0.91636366,0.91636366,0,5.4019427,140.57217)"
       x1="51.42857"
       y1="72.785713"
       x2="90.714287"
       y2="72.785713" />
    <linearGradient
       inkscape:collect="always"
       xlink:href="#linearGradient5010"
       id="linearGradient3206"
       gradientUnits="userSpaceOnUse"
       gradientTransform="matrix(-0.99970462,0.02430362,-0.02430362,-0.99970462,203.40067,148.9174)"
       x1="123.07514"
       y1="75.788338"
       x2="123.07514"
       y2="59.878803" />
    <linearGradient
       inkscape:collect="always"
       xlink:href="#linearGradient5010"
       id="linearGradient3208"
       gradientUnits="userSpaceOnUse"
       x1="123.07514"
       y1="75.788338"
       x2="123.07514"
       y2="59.878803" />
    <linearGradient
       inkscape:collect="always"
       xlink:href="#linearGradient5010"
       id="linearGradient3210"
       gradientUnits="userSpaceOnUse"
       gradientTransform="matrix(-0.99995895,0.00905994,-0.00905994,-0.99995895,200.41274,149.49273)"
       x1="123.07514"
       y1="75.788338"
       x2="123.07514"
       y2="59.878803" />
    <linearGradient
       inkscape:collect="always"
       xlink:href="#linearGradient3737"
       id="linearGradient3212"
       gradientUnits="userSpaceOnUse"
       gradientTransform="matrix(-0.62498884,0.0037337,-0.0037337,-0.62498884,114.95119,116.46185)"
       x1="65.262688"
       y1="64.205269"
       x2="65.262688"
       y2="43.780487" />
    <linearGradient
       inkscape:collect="always"
       xlink:href="#linearGradient3737-1"
       id="linearGradient3214"
       gradientUnits="userSpaceOnUse"
       gradientTransform="translate(-2,0)"
       x1="64.321426"
       y1="55.310268"
       x2="64.321426"
       y2="84.889679" />
  </defs>
  <metadata
     id="metadata2413">
    <rdf:RDF>
      <cc:Work
         rdf:about="">
        <dc:format>image/svg+xml</dc:format>
        <dc:type
           rdf:resource="http://purl.org/dc/dcmitype/StillImage" />
      </cc:Work>
    </rdf:RDF>
  </metadata>
  <g
     id="layer2"
     style="display:none">
    <path
       d="M 11,7 48,5 85,7 c 3.324,0 6,2.676 6,6 l 0,73 c 0,3.324 -2.676,6 -6,6 L 11,92 C 7.676,92 5,89.324 5,86 L 5,13 C 5,9.676 7.676,7 11,7 z"
       inkscape:connector-curvature="0"
       id="rect3745"
       style="opacity:0.9;fill:url(#ButtonShadow);fill-opacity:1;fill-rule:nonzero;stroke:none;filter:url(#filter3174)" />
  </g>
  <g
     id="layer4"
     style="display:none">
    <rect
       width="30"
       height="30"
       rx="2.8125"
       ry="2.8125"
       x="-86"
       y="56"
       transform="matrix(0,-1,1,0,0,4)"
       id="rect3790"
       style="opacity:0.6;fill:#000000;fill-opacity:1;stroke:none;filter:url(#filter3806)" />
    <rect
       width="30"
       height="30"
       rx="2.8125"
       ry="2.8125"
       x="-88"
       y="56"
       transform="matrix(0,-1,1,0,0,0)"
       id="rect2993"
       style="fill:url(#linearGradient3773);fill-opacity:1;stroke:none" />
    <path
       d="M 58.8125,58 C 57.254375,58 56,59.254375 56,60.8125 l 0,24.375 c 0,0.873066 0.410816,1.641163 1.03125,2.15625 C 57.02841,87.289908 57,87.242129 57,87.1875 l 0,-24.375 C 57,61.254375 58.17075,60 59.625,60 l 22.75,0 C 83.82925,60 85,61.254375 85,62.8125 l 0,24.375 c 0,0.05463 -0.02841,0.102408 -0.03125,0.15625 C 85.589184,86.828663 86,86.060566 86,85.1875 l 0,-24.375 C 86,59.254375 84.745625,58 83.1875,58 l -24.375,0 z"
       inkscape:connector-curvature="0"
       id="rect3775"
       style="opacity:0.5;fill:url(#linearGradient3788);fill-opacity:1;stroke:none" />
    <path
       d="m 116,63.5 0,8.75 -5,0 10,13.75 10,-13.75 -5,0 0,-8.75 -10,0 z"
       inkscape:connector-curvature="0"
       transform="translate(-50,0)"
       clip-path="url(#clipPath3823)"
       id="path3810"
       style="opacity:0.6;fill:url(#linearGradient3812);fill-opacity:1;fill-rule:nonzero;stroke:none;display:inline;filter:url(#filter3831)" />
    <path
       d="m 66,62.5 0,8.75 -5,0 10,13.75 10,-13.75 -5,0 0,-8.75 -10,0 z"
       inkscape:connector-curvature="0"
       id="path4278"
       style="fill:url(#linearGradient3832);fill-opacity:1;fill-rule:nonzero;stroke:none;display:inline" />
  </g>
  <g
     id="g3190"
     transform="matrix(1.5105541,0,0,1.4582239,-52.900363,-53.10291)">
    <g
       transform="matrix(1.2847458,0,0,1.2709285,-26.440814,-25.865754)"
       id="layer6">
      <path
         inkscape:connector-curvature="0"
         style="opacity:0.05;fill:#000000;fill-opacity:1;stroke:none;display:inline"
         id="path3950"
         d="m 72.85762,55.307565 c -11.060103,0 -20,8.93989 -20,20 0,11.06011 8.939897,20 20,20 11.060103,0 20,-8.93989 20,-20 0,-11.06011 -8.939897,-20 -20,-20 z" />
      <path
         inkscape:connector-curvature="0"
         style="opacity:0.15;fill:#000000;fill-opacity:1;stroke:none;display:inline"
         id="path3946"
         d="m 71.887028,55.613148 c -10.515528,0 -19,8.48447 -19,19 0,10.51553 8.484472,19 19,19 10.515528,0 19,-8.48447 19,-19 0,-10.51553 -8.484472,-19 -19,-19 z" />
      <rect
         style="opacity:0.31000001;fill:#000000;fill-opacity:1;stroke:none;display:inline"
         id="rect3859"
         clip-path="url(#clipPath3871-0)"
         transform="matrix(0.99499329,0.09994171,-0.09994171,0.99499329,17.848466,-64.646557)"
         y="118"
         x="50"
         ry="18"
         rx="18"
         height="36"
         width="36" />
      <path
         inkscape:connector-curvature="0"
         style="fill:url(#linearGradient3204);fill-opacity:1;stroke:none"
         id="path3836"
         d="m 72.100125,57.444895 a 18,18 0 1 1 0,35.999999 18,18 0 1 1 0,-35.999999 z" />
      <path
         inkscape:connector-curvature="0"
         style="opacity:0.05;fill:url(#linearGradient3206);fill-opacity:1;fill-rule:nonzero;stroke:none;display:inline"
         id="path3884"
         d="m 80.165175,91.864364 a 0.92847237,0.92847237 0 0 0 0.124204,-0.03428 c -0.01163,0.0029 0.135523,-0.03815 0.124203,-0.03428 -0.01131,0.0039 0.135139,-0.03912 0.124204,-0.03428 -0.01089,0.0049 0.133917,-0.0713 0.123444,-0.06552 -0.01046,0.0058 0.102124,-0.07143 0.09215,-0.06476 -0.0099,0.0066 0.132744,-0.07304 0.123444,-0.06552 -0.0088,0.0075 0.100055,-0.104299 0.09139,-0.096 -0.0088,0.0083 0.0993,-0.105022 0.09139,-0.096 -0.0078,0.009 0.06727,-0.104914 0.0602,-0.09524 -0.0068,0.0097 0.0976,-0.10625 0.09139,-0.096 -0.0058,0.01024 0.06468,-0.137231 0.05944,-0.126482 -0.0047,0.01074 0.03248,-0.136889 0.02815,-0.125721 -0.0047,0.01118 0.06352,-0.10674 0.0602,-0.09524 -0.0037,0.0115 0.03047,-0.137463 0.02815,-0.125722 -0.0027,0.01175 -0.0013,-0.136868 -0.003,-0.124963 -0.0017,0.0119 0.02836,-0.137678 0.02815,-0.125721 -1.41e-4,0.009 -0.0014,-0.05698 -0.0023,-0.09372 -2.78e-4,-0.01225 -9.72e-4,-0.03423 -7.6e-4,-0.03124 l -0.297719,-12.246382 3.530207,-0.08582 c -0.01,2.07e-4 0.103294,-0.0032 0.09367,-0.0023 -0.01,8.82e-4 0.102448,-0.03506 0.09291,-0.03352 -0.01,0.0015 0.134312,-0.0053 0.124963,-0.003 -0.0089,0.0022 0.102136,-0.03637 0.09291,-0.03352 -0.0089,0.0028 0.10191,-0.03702 0.09291,-0.03352 -0.0089,0.0035 0.101645,-0.03763 0.09291,-0.03352 -0.0089,0.0041 0.100571,-0.06947 0.09215,-0.06476 -0.0079,0.0047 0.100986,-0.03882 0.09291,-0.03352 -0.0079,0.0053 0.06862,-0.06985 0.06096,-0.064 -0.0079,0.0059 0.0994,-0.07113 0.09215,-0.06476 -0.0068,0.0064 0.0677,-0.07086 0.06096,-0.064 -0.0068,0.0069 0.09768,-0.103313 0.09139,-0.096 -0.0058,0.0073 0.06668,-0.07173 0.06096,-0.064 -0.0058,0.0077 0.06531,-0.103355 0.0602,-0.09524 -0.0048,0.0081 0.03351,-0.102938 0.02891,-0.09448 -0.0048,0.0084 0.06419,-0.103998 0.0602,-0.09524 -0.0038,0.0088 0.03305,-0.07225 0.02967,-0.06324 -0.0038,0.009 0.03093,-0.134948 0.02815,-0.125721 -0.0028,0.0093 0.03099,-0.103872 0.02891,-0.09448 -0.0018,0.0093 0.03028,-0.103991 0.02891,-0.09448 -0.0018,0.0095 -0.0016,-0.103306 -0.0023,-0.09372 -6.96e-4,0.0096 -0.0023,-0.10333 -0.0023,-0.09372 -1.7e-5,0.0096 -0.0037,-0.134549 -0.003,-0.124963 6.53e-4,0.0096 -0.0035,-0.103241 -0.0023,-0.09372 0.0012,0.0095 -0.0045,-0.103116 -0.0023,-0.09372 0.0022,0.0093 -0.0362,-0.102198 -0.03347,-0.09296 0.0022,0.0092 -0.03679,-0.10199 -0.03347,-0.09296 0.0032,0.009 -0.03738,-0.101737 -0.03347,-0.09296 0.0042,0.0088 -0.06927,-0.10068 -0.06476,-0.0922 0.0042,0.0085 -0.03867,-0.101099 -0.03347,-0.09296 0.0052,0.0082 -0.07045,-0.09996 -0.06476,-0.0922 0.0052,0.0078 -0.07094,-0.09954 -0.06476,-0.0922 L 74.37801,62.152487 c 0.0021,0.0024 0.01045,-0.01853 -7.6e-4,-0.03124 -0.01687,-0.01906 -0.03513,-0.03385 -0.03195,-0.03048 0.0051,0.0056 -0.06953,-0.06627 -0.064,-0.06096 0.0051,0.0053 -0.06982,-0.06595 -0.064,-0.06096 0.0061,0.005 -0.07012,-0.06562 -0.064,-0.06096 0.0061,0.0047 -0.06965,-0.03402 -0.06324,-0.02972 0.0061,0.0044 -0.0706,-0.06489 -0.064,-0.06096 0.0071,0.0039 -0.101291,-0.03252 -0.09443,-0.02896 0.0071,0.0035 -0.07022,-0.03289 -0.06324,-0.02972 0.0071,0.0031 -0.07041,-0.03249 -0.06324,-0.02972 0.0071,0.0027 -0.101792,-0.03133 -0.09443,-0.02896 0.0071,0.0023 -0.07069,-0.03167 -0.06324,-0.02972 0.007,0.0019 -0.102011,-0.03049 -0.09443,-0.02896 0.007,0.0015 -0.07011,4.04e-4 -0.06248,0.0015 0.008,0.0011 -0.102131,-0.02964 -0.09443,-0.02896 0.008,6.68e-4 -0.07019,0.0013 -0.06248,0.0015 0.008,2.38e-4 -0.1014,0.0025 -0.09367,0.0023 0.008,-1.94e-4 -0.10138,0.0029 -0.09367,0.0023 0.008,-6.27e-4 -0.07006,0.0026 -0.06248,0.0015 0.008,-0.0011 -0.100499,0.03499 -0.09291,0.03352 0.008,-0.0015 -0.06994,0.0034 -0.06248,0.0015 0.007,-0.0019 -0.100289,0.03583 -0.09291,0.03352 0.0069,-0.0023 -0.06886,0.03547 -0.06172,0.03276 0.0069,-0.0027 -0.09998,0.03663 -0.09291,0.03352 0.0069,-0.0031 -0.06854,0.03627 -0.06172,0.03276 0.0069,-0.0035 -0.06833,0.03664 -0.06172,0.03276 0.0069,-0.0039 -0.09936,0.03777 -0.09291,0.03352 0.0059,-0.0042 -0.06715,0.0686 -0.06096,0.064 0.0059,-0.0046 -0.0676,0.0377 -0.06172,0.03276 0.0059,-0.0049 -0.06654,0.06927 -0.06096,0.064 0.0059,-0.0052 -0.06623,0.06957 -0.06096,0.064 0.0049,-0.0055 -0.06592,0.06986 -0.06096,0.064 0.0029,-0.0035 -0.01451,0.01214 -0.03043,0.032 -0.01058,0.01324 -0.0012,0.03369 7.6e-4,0.03124 L 61.465938,76.189193 c 0.0058,-0.0076 -0.06551,0.103266 -0.0602,0.09524 0.0048,-0.008 -0.0649,0.103617 -0.0602,0.09524 0.0048,-0.0084 -0.0331,0.103169 -0.02891,0.09448 0.0038,-0.0087 -0.06369,0.104195 -0.0602,0.09524 0.0038,-0.009 -0.03179,0.103657 -0.02891,0.09448 0.0028,-0.0092 -0.03119,0.103837 -0.02891,0.09448 0.0018,-0.0093 -0.03048,0.103966 -0.02891,0.09448 0.0018,-0.0094 0.0015,0.10329 0.0023,0.09372 7.69e-4,-0.0095 0.0021,0.103328 0.0023,0.09372 1.86e-4,-0.0096 0.0035,0.134559 0.003,0.124963 -4.84e-4,-0.0096 0.0034,0.10326 0.0023,0.09372 -0.0012,-0.0096 0.0045,0.103145 0.0023,0.09372 -0.0022,-0.0094 0.03599,0.102243 0.03347,0.09296 -0.0022,-0.0092 0.03669,0.102044 0.03347,0.09296 -0.0032,-0.0091 0.03805,0.133043 0.03423,0.124205 -0.0042,-0.0088 0.03712,0.07028 0.03271,0.06172 -0.0042,-0.0086 0.06976,0.100427 0.06476,0.0922 -0.0052,-0.0082 0.03906,0.100818 0.03347,0.09296 -0.0052,-0.0079 0.07084,0.09965 0.06476,0.0922 -0.0062,-0.0075 0.07057,0.06796 0.064,0.06096 -0.0062,-0.0071 0.103062,0.09796 0.09595,0.09144 -0.0072,-0.0065 0.07155,0.06697 0.064,0.06096 -0.0071,-0.006 0.103146,0.06567 0.09519,0.0602 -0.0081,-0.0055 0.07232,0.06586 0.064,0.06096 -0.0081,-0.0049 0.103068,0.03326 0.09443,0.02896 -0.0081,-0.0043 0.104114,0.06389 0.09519,0.0602 -0.0091,-0.0037 0.103588,0.03202 0.09443,0.02896 -0.0091,-0.0031 0.103783,0.03137 0.09443,0.02896 -0.0091,-0.0024 0.103927,0.03071 0.09443,0.02896 -0.009,-0.0018 0.134512,-0.002 0.124963,-0.003 -0.01003,-0.0011 0.104085,0.02937 0.09443,0.02896 -0.01001,-3.95e-4 0.103329,-0.0025 0.09367,-0.0023 l 3.530207,-0.08582 0.29772,12.246382 7.59e-4,0.03124 c 6.25e-4,0.02322 0.0018,0.06709 0.0015,0.06248 -3.48e-4,-0.0069 0.0022,0.06936 0.0015,0.06248 -6.98e-4,-0.0069 0.03378,0.06856 0.03271,0.06172 -10e-4,-0.0069 0.0034,0.100498 0.0023,0.09372 -0.0012,-0.0068 0.0037,0.06916 0.0015,0.06248 -0.0022,-0.0066 0.03487,0.06831 0.03271,0.06172 -0.0022,-0.0065 0.03517,0.06821 0.03271,0.06172 -0.0022,-0.0064 0.03622,0.09932 0.03347,0.09296 -0.0032,-0.0063 0.03576,0.06793 0.03271,0.06172 -0.0032,-0.0062 0.03606,0.06776 0.03271,0.06172 -0.0031,-0.006 0.03645,0.06759 0.03271,0.06172 -0.0041,-0.0059 0.03675,0.0674 0.03271,0.06172 -0.0041,-0.0057 0.03694,0.06719 0.03271,0.06172 -0.0041,-0.0055 0.06853,0.06621 0.064,0.06096 -0.0041,-0.0053 0.03677,0.0355 0.03195,0.03048 -0.0051,-0.005 0.06902,0.06573 0.064,0.06096 -0.0051,-0.0048 0.06921,0.06547 0.064,0.06096 -0.0051,-0.0045 0.03745,0.03472 0.03195,0.03048 -0.0051,-0.0043 0.0697,0.06492 0.064,0.06096 -0.0061,-0.004 0.06913,0.03338 0.06324,0.02972 -0.0061,-0.0037 0.06932,0.03308 0.06324,0.02972 -0.0061,-0.0034 0.06942,0.03277 0.06324,0.02972 -0.0061,-0.0031 0.06961,0.03246 0.06324,0.02972 -0.0061,-0.0028 0.0697,0.03213 0.06324,0.02972 -0.0061,-0.0025 0.101075,0.03104 0.09443,0.02896 -0.0071,-0.002 0.06989,0.03147 0.06324,0.02972 -0.007,-0.0017 0.06998,0.03113 0.06324,0.02972 -0.007,-0.0014 0.06931,-4.85e-4 0.06248,-0.0015 -0.007,-0.001 0.100602,-0.0016 0.09367,-0.0023 -0.007,-7.08e-4 0.07015,0.03008 0.06324,0.02972 -0.007,-3.59e-4 0.06938,-0.0015 0.06248,-0.0015 -0.005,0 0.03929,-0.001 0.06248,-0.0015 l 0.03119,-7.59e-4 11.902733,-0.289365 c -0.005,-2.09e-4 0.03477,-0.0017 0.06248,-0.0015 -0.003,-9.2e-5 0.01738,-8.11e-4 0.03119,-7.58e-4 -0.005,1.22e-4 0.03481,-6.7e-5 0.06248,-0.0015 -0.003,7.3e-5 0.01741,2.1e-5 0.03119,-7.58e-4 0.02767,-0.0016 0.06797,-0.002 0.06248,-0.0015 z" />
      <path
         style="opacity:0.3;fill:url(#linearGradient3208);fill-opacity:1;fill-rule:nonzero;stroke:none;display:inline"
         id="path3886"
         clip-path="url(#clipPath3894)"
         transform="matrix(-0.99996817,0.00797804,-0.00797804,-0.99996817,200.77874,148.46988)"
         inkscape:connector-curvature="0"
         d="m 122,61.5 0,13.75 -5,0 11,13.75 11,-13.75 -5,0 0,-13.75 -12,0 z" />
      <path
         inkscape:connector-curvature="0"
         style="opacity:0.15;fill:url(#linearGradient3210);fill-opacity:1;fill-rule:nonzero;stroke:none;display:inline"
         id="path3876"
         d="m 77.92787,89.631233 a 0.51873381,0.51873381 0 0 0 0.463918,-0.535475 L 78.272027,75.87755 82.740593,75.83706 a 0.51873381,0.51873381 0 0 0 0.398589,-0.847396 L 72.01506,61.339891 a 0.51873381,0.51873381 0 0 0 -0.812467,0.0074 l -10.874974,13.84909 a 0.51873381,0.51873381 0 0 0 0.413877,0.840035 l 4.468567,-0.04049 0.11976,13.218207 a 0.51873381,0.51873381 0 0 0 0.536042,0.526416 l 11.999508,-0.10872 a 0.51873381,0.51873381 0 0 0 0.0625,-5.27e-4 z" />
      <path
         style="fill:url(#linearGradient3212);fill-opacity:1;fill-rule:nonzero;stroke:none;display:inline"
         id="path3867"
         inkscape:connector-curvature="0"
         d="m 78.289051,89.430386 -0.08214,-13.749755 4.999912,-0.02987 -11.081947,-13.684041 -10.917661,13.815468 4.999911,-0.02987 0.08214,13.749754 11.999787,-0.07169 z" />
      <g
         transform="translate(3.9737547,1.0730136)"
         style="display:inline"
         id="g4106">
        <path
           style="opacity:0.3;fill:url(#linearGradient3214);fill-opacity:1;stroke:none"
           id="path3846"
           inkscape:connector-curvature="0"
           d="m 68,56 c -9.941125,0 -18,8.058875 -18,18 0,3.6617 1.09067,7.063961 2.96875,9.90625 C 51.722125,81.541769 51,78.858787 51,76 c 0,-9.388841 7.611159,-17 17,-17 9.388841,0 17,7.611159 17,17 0,2.858787 -0.722125,5.541769 -1.96875,7.90625 C 84.90933,81.063961 86,77.6617 86,74 86,64.058875 77.941125,56 68,56 z" />
        <path
           style="opacity:0.3;fill:#ffffff;fill-opacity:1;stroke:none;display:inline"
           id="path4097"
           inkscape:connector-curvature="0"
           d="m 68,56 c -9.94112,0 -18,8.05887 -18,18 0,0.168593 0.02664,0.33252 0.03125,0.5 C 50.298212,64.79197 58.227473,57 68,57 c 9.73052,0 17.63723,7.725255 17.96875,17.375 l 0,-1 C 85.63723,63.725255 77.73052,56 68,56 z" />
      </g>
    </g>
  </g>
</svg>
